<mxfile host="app.diagrams.net" modified="2024-03-24T12:52:31.615Z" agent="Mozilla/5.0 (Windows NT 10.0; Win64; x64) AppleWebKit/537.36 (KHTML, like Gecko) Chrome/123.0.0.0 Safari/537.36" version="24.0.6" etag="CDBrL6-fwuW1AzsvGjLS" type="github">
  <diagram name="Page-1" id="rNbzwFoTySWasBKPdkv7">
    <mxGraphModel>
      <root>
        <mxCell id="0" />
        <mxCell id="1" parent="0" />
      </root>
    </mxGraphModel>
  </diagram>
</mxfile>
